<?xml version="1.0" encoding="utf-8"?>
<!-- Generator: Adobe Illustrator 24.1.0, SVG Export Plug-In . SVG Version: 6.00 Build 0)  -->
<svg version="1.1" id="Layer_1" xmlns="http://www.w3.org/2000/svg" xmlns:xlink="http://www.w3.org/1999/xlink" x="0px" y="0px"
	 viewBox="0 0 189 272" style="enable-background:new 0 0 189 272;" xml:space="preserve">
<style type="text/css">
	.st0{fill:none;stroke:#000000;stroke-linecap:round;stroke-linejoin:round;stroke-miterlimit:10;}
</style>
<g>
	<path class="st0" d="M27.5,243c-1.17,2.11,0.29,4.43,1.15,5.36c5.38,5.8,8.38,13.67,15.77,17.78c1.76,0.98,3.27,1.36,5.08,1.36
		c26,0,52,0.03,78-0.02c5.25-0.01,8.78-3.32,11.99-6.98c2.51-2.86,4.29-6.23,6.9-9.09c4.2-4.59,4.16-13.73,1.15-19.43
		c-6.97-13.18-15.51-25.56-20.17-39.94c-0.6-1.85-1.25-3.58-1.4-5.54c-0.42-5.65-1.09-11.11-5.34-15.63
		c-1.22-1.3-1.95-4.09-0.64-6.37c1.01-1.76,0.66-3.72,0.43-5.49c-1.19-9.41,0.94-18.67,1.2-28c0.09-3.29,2.47-6.29,1.48-10.04
		c-0.65-2.47-1.48-3.96-4.12-3.96C98.33,117,77.67,117,57,117.02c-0.5,0-1,0.31-1.5,0.48"/>
	<path class="st0" d="M148.5,243.5c-2.25-0.91-4.6-1.02-7-1.02c-18.17,0.03-36.33,0.08-54.5,0c-15.83-0.07-31.67-0.38-47.5-0.45
		c-6-0.03-12,0.3-18,0.47"/>
	<path class="st0" d="M133.5,100.75c-3.2,0.39-1.55,3.84-3.39,5.38c-1.56,1.31-2.28,2.88-4.66,1.45c-1.05-0.63-2.63-0.61-3.95-0.55
		c-15.16,0.72-30.33-0.38-45.51,0.28c-5.93,0.26-11.99-0.24-17.99-0.29c-7.48-0.07-11.84,2.69-14.45,9.5
		c-1.79,4.66-4.22,8.84-8.1,11.91c-2.13,1.68-3.38,3.74-4.45,6.07"/>
	<path class="st0" d="M30.5,135.5c-1.56,5.65-4.85,8.64-10.91,10.32c-5.69,1.57-9.41,7.11-11.5,12.71
		C2.42,173.65,3.96,192.96,18,204.5c3.71,3.06,7.92,5.33,12.53,6.36c2.78,0.62,5.08,1.86,7.47,3.13"/>
	<path class="st0" d="M182,117.5c-1.04,2.46-3.23,3.6-5.51,4.48c-19.07,7.33-32.14,21.44-42.93,38.06
		c-1.64,2.53-2.74,5.54-3.48,8.48c-0.84,3.33-2.6,5.83-5.09,7.98"/>
	<path class="st0" d="M58.5,166.5c1.6,0.8,3.33,0.49,5,0.49c18.33,0.02,36.67,0.01,55,0.01"/>
	<path class="st0" d="M118.5,154c-18.33,0-36.67-0.01-55,0.01c-1.67,0-3.4-0.31-5,0.49"/>
	<path class="st0" d="M189.5,118c-3.49,0.03-6.49-1.17-9.55-2.91c-6.46-3.68-13.58-2.31-20.44-1.51
		c-6.07,0.71-12.44,2.86-16.25,7.15c-5.81,6.54-12.3,5.49-19.26,4.77"/>
	<path class="st0" d="M47,110c-1.64-1.91-1.72-4.6-3.38-6.6c-0.58-0.7-0.87-2.3-0.25-3.95c2.51-6.69,8.16-10.94,12.32-16.3
		c1.69-2.18,5.16-4.15,8.87-1.75c1.25,0.81,3.27,0.57,4.93,0.58c12.67,0.04,25.33,0.04,38,0c1.5,0,3.22,0.1,4.46-0.55
		c4.39-2.3,7.87-0.28,10.44,2.66c4.3,4.92,8.71,9.98,9.6,16.91"/>
	<path class="st0" d="M50,113c6.75,5.51,5.44,13.23,5.45,20.5c0.01,5.53,0.77,11.02,1.25,16.48c0.98,11.14,0.97,21.96-3.19,32.52
		c-4.19,10.64-7.35,21.7-14.39,31.08c-1.8,2.4-1.84,6.04-3.18,8.88c-2.07,4.39-5.19,8.2-7.59,12.44c-1.39,2.45-1.41,4.64-1.34,7.09"
		/>
	<path class="st0" d="M89.5,27c1.46-3.79,4.56-6.88,4.11-11.51c-0.27-2.82-1.02-5.18-2.56-7.52c-1.87-2.85-3.27-2.46-5.07,0.02
		c-4.16,5.73-3.35,16.22,4.99,20.09C97.9,31.3,98.07,30.69,95,41"/>
	<path class="st0" d="M22.5,72.5c0.24,4-2.44,7.21-3.01,11c-0.45,2.97,0.09,5.56,3.51,5.94c5.76,0.63,9.9,4.02,13.98,7.58
		c1.67,1.46,3.11,3.22,5.52,3.48"/>
	<path class="st0" d="M54.75,137c-3.25,0-6.52-0.24-9.75,0.05c-8.4,0.75-15.79-1.72-22.49-6.57c-2.25-1.63-4.52-1.4-6.47,0.08
		c-2.22,1.69-3.47,4.02-2.04,6.94c1.31,2.68,2.66,5.34,3.99,8"/>
	<path class="st0" d="M23,76c8.71-0.26,14.99,3.86,19.47,11.02c1.03,1.64,2.01,3.26,3.53,4.48"/>
	<path class="st0" d="M100,58c-6.96,1.68-13.99,1.3-20.99,0.41c-1.38-0.17-2.66-0.74-3.48,0.6c-3.88,6.33-8.36,12.22-12.98,18.02
		C62,77.73,62.17,79,62,80"/>
	<path class="st0" d="M77,57.5c-1.72-5.01,1.51-9.31,2.19-13.97c0.21-1.41,2.15-3.01,4.85-2.17c2.28,0.71,4.96,0.14,7.46,0.15
		c5.68,0.02,7.92,0.97,7.77,6.49c-0.31,11.51,7.31,18.46,13.27,26.47c1.28,1.72,2.7,3.21,2.46,5.53"/>
</g>
</svg>
