<?xml version="1.0" encoding="utf-8"?>
<!-- Generator: Adobe Illustrator 24.1.0, SVG Export Plug-In . SVG Version: 6.00 Build 0)  -->
<svg version="1.1" id="Layer_1" xmlns="http://www.w3.org/2000/svg" xmlns:xlink="http://www.w3.org/1999/xlink" x="0px" y="0px"
	 viewBox="0 0 164 281" style="enable-background:new 0 0 164 281;" xml:space="preserve">
<style type="text/css">
	.st0{fill:none;stroke:#000000;stroke-linecap:round;stroke-linejoin:round;stroke-miterlimit:10;}
</style>
<g>
	<path class="st0" d="M156.5,25.5c-12.17,25.83-24.4,51.64-36.44,77.53c-2.4,5.15-4.06,10.64-6.06,15.97"/>
	<path class="st0" d="M93.5,277.5c-3.17,0.67-6.31,1.72-9.5,1.94c-15.95,1.1-31.84,0.92-47.49-2.96c-0.71-0.17-1.34-0.65-2.01-0.98"
		/>
	<path class="st0" d="M38.5,158.5c-0.17,1.33-0.33,2.67-0.5,4"/>
	<path class="st0" d="M38,163c0.75,5.84-0.63,12,2.5,17.5"/>
	<path class="st0" d="M104,233.5c-0.36-3.85-0.72-7.71-1.11-11.89c-4.03-0.43-7.21-0.77-10.39-1.11"/>
	<path class="st0" d="M76.5,217c-6.33-0.17-12.67-0.33-19-0.5"/>
	<path class="st0" d="M55.5,274.5c1,0.5,1.99,1.42,3,1.43c7,0.13,14,0.07,21,0.07"/>
	<path class="st0" d="M75.5,200c-5-0.17-10-0.33-15-0.5"/>
	<path class="st0" d="M58.5,205.5c5.33,0,10.67,0,16,0"/>
	<path class="st0" d="M140.5,45.5c0.93,4.75-1.18,8.48-3.97,12.02c-0.68,0.86-1.03,1.98-1.53,2.98"/>
	<path class="st0" d="M92.5,135.5c0.09,3.97-0.77,6.66-3.5,11"/>
	<path class="st0" d="M39.5,219.5c-2,0.5-4,1-6,1.5"/>
	<path class="st0" d="M88,207.5c3.41,2.81,6.56,6.12,11.5,6"/>
	<path class="st0" d="M60.5,195c5,0,10,0,15,0"/>
	<path class="st0" d="M60,254c-3-2.17-5.99-4.35-9-6.49c-2.15-1.53-4.13-1.93-5.5,0.99"/>
	<path class="st0" d="M72.5,220.5c-3.33,0-6.67,0-10,0"/>
	<path class="st0" d="M55.5,261.5c0.33-0.83,1.11-2.27,0.93-2.41c-2.23-1.64-4.6-3.09-6.93-4.59"/>
	<path class="st0" d="M82.5,255.5c-2.96,4-4.94,4.45-11,2.5"/>
	<path class="st0" d="M92.5,248.5c0.5-0.67,1.47-1.41,1.39-1.98c-0.12-0.81-1.04-1.49-2.21-2.99c-1.62,2.31-2.9,4.14-4.17,5.97"/>
	<path class="st0" d="M80.5,236c-1.32-0.37-2.65-0.74-3.97-1.1c-0.29,0.27-0.58,0.53-0.87,0.8c1.51,1.82,3.03,3.65,4.54,5.47
		c0.27-0.22,0.53-0.44,0.8-0.66c0,0.83,0,1.67,0,2.5"/>
	<path class="st0" d="M43,201.5c0.53,1.32,1.05,2.65,1.87,4.72c-2.7,2.03-5.54,4.15-8.37,6.28"/>
	<path class="st0" d="M86.5,260.5c-2.33,2-4.67,4-7,6"/>
	<path class="st0" d="M33,256c1.83,2.17,3.67,4.33,5.5,6.5"/>
	<path class="st0" d="M59,246c-1.72-1.47-3.43-2.95-5.05-4.34c-1.12,0.84-1.79,1.34-2.45,1.84"/>
	<path class="st0" d="M109.5,236.5c-0.66,2.44-1.32,4.88-1.98,7.32c-0.36-0.3-0.71-0.6-1.07-0.9c-2.48,0.19-4.97,0.38-7.45,0.58"/>
	<path class="st0" d="M110.5,244.5c-0.33,2.33-0.67,4.67-1,7"/>
	<path class="st0" d="M55,250c-0.17-1.17-0.33-2.33-0.57-4c-1.1,0-2.26,0-3.43,0"/>
	<path class="st0" d="M94.5,250.5c-1.21,0.97-2.42,1.94-4.48,3.59c-0.12,0.27-0.72,1.64-1.45,3.28c0.49,0.71,1.17,1.7,1.68,2.45
		c1.88-0.47,3.57-0.89,5.26-1.32"/>
	<path class="st0" d="M29.5,225.75c0.96,2.37,1.92,4.74,2.93,7.23c-2.27,0.08-4.76,2.33-5.43-1.48"/>
	<path class="st0" d="M39.5,239.5c-1.83,1.5-3.67,3-5.5,4.5"/>
	<path class="st0" d="M113,120c-2.17,4.5-4.33,9-6.5,13.5"/>
	<path class="st0" d="M61.5,255.5c1.5,0.67,3.45,0.95,4.42,2.07c2.74,3.18-0.6,4.34-2.42,5.93c-1.5-0.83-3-1.67-4.5-2.5"/>
	<path class="st0" d="M159.5,7c-1.5,2.17-3,4.33-4.5,6.5"/>
	<path class="st0" d="M105.5,135.5c-0.67,2-1.33,4-2,6"/>
	<path class="st0" d="M29,236c-1.3,1.53-2.61,3.06-4.69,5.5c3.53,0,5.86,0,8.25,0c-0.14-4.02-5-6.35-2.56-10.5"/>
	<path class="st0" d="M62.5,233.5c-0.33,2.17-0.86,4.32-0.96,6.5c-0.16,3.51-0.04,7.03-0.04,10.55c-0.43,0.06-0.86,0.11-1.3,0.17
		c-0.4-0.57-0.8-1.14-1.2-1.72"/>
	<path class="st0" d="M73.5,208.5c-2,0-4,0-6,0"/>
	<path class="st0" d="M146.5,31.5c-1.29,2.51-4.37,4.27-2.21,8.12c0.69,1.24-1.12,3.88-1.79,5.88"/>
	<path class="st0" d="M74,246.5c-1.83,1.17-3.67,2.33-5.5,3.5"/>
	<path class="st0" d="M92.5,202.5c-2.33,1.67-4.67,3.33-7,5"/>
	<path class="st0" d="M53.5,237.5c1,0.66,2,1.33,3.27,2.17c0.68-0.51,1.46-1.09,2.23-1.67"/>
	<path class="st0" d="M43.5,251.5c-1.75-1.06-3.44-2.86-5.5-0.5"/>
	<path class="st0" d="M45.5,258.5c0.5,3.47-1.73,4.71-4.5,5.5"/>
	<path class="st0" d="M97.5,236.5c-0.46,2.61,2.89,4.64,1.04,7.53c-0.75,1.17-1.04,2.64-1.54,3.97"/>
	<path class="st0" d="M60.5,235.5c-1.67,0-3.33,0-5,0"/>
	<path class="st0" d="M98.5,257c1.21,1.1,2.42,2.2,3.63,3.3c-0.2,0.39-0.4,0.78-0.6,1.17c-2.82-2.24-5.09,4.17-8.03,0.03"/>
	<path class="st0" d="M27,253c1.83,1.83,3.67,3.67,5.5,5.5"/>
	<path class="st0" d="M159.5,18.5c-0.67,1.67-1.33,3.33-2,5"/>
	<path class="st0" d="M24,244c0.78,2.74,1.56,5.48,2.61,9.19c1.09-1.55,1.49-2.12,1.89-2.69"/>
	<path class="st0" d="M81.5,253.5c-5.7-0.5-6.56,0.11-7,5"/>
	<path class="st0" d="M77,240c-1.48,0.19-2.96,0.37-5.29,0.66c0.06,0.72,0.18,2.03,0.29,3.34"/>
	<path class="st0" d="M32.5,247.5c-1.17,2.17-2.33,4.33-3.5,6.5"/>
	<path class="st0" d="M59,270c-1.5,0.17-3,0.33-4.5,0.5"/>
	<path class="st0" d="M68.5,193c-1.33,0.33-2.67,0.67-4,1"/>
	<path class="st0" d="M57,250c2.71-2.93,5.55-4.68,9.26-0.72c-0.88,1.51-1.82,3.12-2.76,4.72"/>
	<path class="st0" d="M72.5,265c1.33,0.5,2.67,1,4,1.5"/>
	<path class="st0" d="M59.5,264.5c-1.28,1.06-2.56,2.13-3.9,3.24c-0.97-1.21-1.78-2.23-2.6-3.24"/>
	<path class="st0" d="M49.5,257.5c-0.38,0.46-0.77,0.92-1.24,1.49c1.05,0.39,1.9,0.7,2.74,1.01"/>
	<path class="st0" d="M106.5,253.5c0.67,2,1.33,4,2,6"/>
	<path class="st0" d="M100.5,236.5c0.67,1,1.33,2,2,3"/>
	<path class="st0" d="M104.5,270.5c-1.33,0.33-2.67,0.67-4,1"/>
	<path class="st0" d="M124.5,82.5c-0.5,1.17-1,2.33-1.5,3.5"/>
	<path class="st0" d="M37.5,158c-1.33-0.17-2.67-0.33-4-0.5"/>
	<path class="st0" d="M30,242.5c0.34,2.17-1.96,4.74,1,6.5"/>
	<path class="st0" d="M105,232c0.5,1.17,1,2.33,1.5,3.5"/>
	<path class="st0" d="M99.5,250c-1,0.5-2,1-3,1.5"/>
	<path class="st0" d="M50.5,264c-0.54-0.91-1.09-1.82-1.63-2.73c-0.29,0.06-0.58,0.13-0.87,0.19c0,0.68,0,1.36,0,2.03"/>
	<path class="st0" d="M97.5,256.5c-1.02-0.42-2.04-0.84-3.56-1.46c-0.41,1-0.93,2.23-1.44,3.46"/>
	<path class="st0" d="M99.5,254.5c-0.5,0.67-1.13,1.27-1.47,2.01c-0.6,1.29-1.03,2.65-1.53,3.99"/>
	<path class="st0" d="M132.5,68.5c-1.17,2-2.33,4-3.5,6"/>
	<path class="st0" d="M91.5,265.5c0.33,1,0.67,2,1,3"/>
	<path class="st0" d="M23.5,253.5c0.84-0.16,1.67-0.31,3-0.56c0,1.22,0,2.39,0,3.56"/>
	<path class="st0" d="M53,267c-0.17,0.83-0.33,1.67-0.5,2.5"/>
	<path class="st0" d="M41,254c-0.83-0.17-1.67-0.33-2.5-0.5"/>
	<path class="st0" d="M76,194c0-0.33,0.04-0.95-0.01-0.96C75.5,192.97,75,193,74.5,193"/>
	<path class="st0" d="M94.5,247c2.62,1.12,5.23,2.24,7.69,3.3c2.29-2.12,1.63-3.2-0.69-3.8"/>
	<path class="st0" d="M42.5,242.5c0.67,0.67,1.33,1.33,2,2"/>
	<path class="st0" d="M26.5,259.5c0.33,1.33,0.67,2.67,1,4"/>
	<path class="st0" d="M85.5,245c-2.33-0.17-4.67-0.33-7-0.5"/>
	<path class="st0" d="M29,230c-1.5,0.5-3,1-4.5,1.5"/>
	<path class="st0" d="M42,252c-0.18,0.33-0.36,0.65-0.54,0.98c0.37,0.19,0.71,0.35,1.04,0.52"/>
	<path class="st0" d="M52,262c0.22,0.65,0.43,1.3,0.83,2.5c-2.17,0-4,0-5.83,0"/>
	<path class="st0" d="M67,264c-0.18,0.33-0.36,0.65-0.54,0.98c0.37,0.19,0.71,0.35,1.04,0.52"/>
	<path class="st0" d="M71,264c0.38,0.46,0.77,0.92,1.12,1.34c-0.62,0.82-1.12,1.49-1.62,2.16"/>
	<path class="st0" d="M63.5,264c0,1.5,0,3,0,4.5"/>
	<path class="st0" d="M68.5,267.5c-0.33,0.67-0.67,1.33-1,2"/>
	<path class="st0" d="M79.5,269.5c-0.33,0.67-0.67,1.33-1,2"/>
	<path class="st0" d="M162.5,12.5c-0.33,0.67-0.67,1.33-1,2"/>
	<path class="st0" d="M73.5,268.5c1,0.67,2,1.33,3,2"/>
	<path class="st0" d="M59.5,268.5c0.33,0.33,0.67,0.67,1,1"/>
	<path class="st0" d="M72.5,203.5c-0.5,0.17-1,0.33-1.5,0.5"/>
	<path class="st0" d="M88.5,251.5c0.5,0.33,1,0.67,1.5,1"/>
	<path class="st0" d="M65.5,244.5c0.5,0.17,1,0.33,1.5,0.5"/>
	<path class="st0" d="M70,263c-0.67,0-1.33,0-2.3,0c-0.28-0.23-0.74-0.62-1.2-1"/>
	<path class="st0" d="M134.5,64.5c-0.33,0.33-0.67,0.67-1,1"/>
	<path class="st0" d="M53.5,253.5c0.5,0.17,1,0.33,1.5,0.5"/>
	<path class="st0" d="M28,260c0.5,0.17,1,0.33,1.5,0.5"/>
</g>
</svg>
