<?xml version="1.0" encoding="utf-8"?>
<!-- Generator: Adobe Illustrator 24.1.0, SVG Export Plug-In . SVG Version: 6.00 Build 0)  -->
<svg version="1.1" id="Layer_1" xmlns="http://www.w3.org/2000/svg" xmlns:xlink="http://www.w3.org/1999/xlink" x="0px" y="0px"
	 viewBox="0 0 211 315" style="enable-background:new 0 0 211 315;" xml:space="preserve">
<style type="text/css">
	.st0{fill:none;stroke:#000000;stroke-linecap:round;stroke-linejoin:round;stroke-miterlimit:10;}
</style>
<g>
	<path class="st0" d="M67.5,222c-1.5,1.17-2.84,2.9-4.53,3.39c-4.27,1.22-5.59,4.46-6.45,8.12c-5.36,22.66-10.66,45.33-16.03,67.99
		c-1.28,5.39,1.36,9.39,7.02,9.41c5.33,0.02,10.75,1.02,16.01-0.89c2.61-0.95,4.84,1.11,7.49,1.09c18.66-0.2,37.36,0.44,55.99-0.38
		c7.24-0.32,14.33,0.77,21.52,0.35c6.83-0.39,9.51-4.2,8.08-10.1c-5.7-23.45-11.07-46.98-16.6-70.48c-0.51-2.17-1.52-3.8-3.96-4.59
		c-2.13-0.69-4.07-2.07-5.53-3.91"/>
	<path class="st0" d="M153.5,208c9.56,0.17,18.81-0.28,27.07-6.41c9.09-6.74,13.49-15.58,13.89-26.59
		c0.22-6.16,0.08-12.33,0.03-18.5c-0.08-9.01-5.98-14.91-14.99-14.99c-5.67-0.05-11.33-0.01-17-0.01"/>
	<path class="st0" d="M77.5,219c0.9,13.82-2.59,27.09-4.97,40.51c-2.63,14.81-4.95,29.68-7.63,44.48c-0.31,1.71-0.13,3.36-0.4,5.02"
		/>
	<path class="st0" d="M129.5,136.5c-0.01,9.48-2.36,18.66-3.48,28c-1.81,15.03-5.27,29.86-5.94,45c-0.69,15.83,1.58,31.46,4.41,47
		c3.2,17.49,6.34,35,9.51,52.5"/>
	<path class="st0" d="M68.5,136.5c0.41,13.49,3.35,26.67,5.09,39.99C75.4,190.3,78.36,203.97,78,218"/>
	<path class="st0" d="M160.5,143c-9.12,5.9-9.12,16.05-11.43,25.02c-3.11,12.09-5.67,24.33-8.62,36.47c-0.8,3.29-2.5,6.22-5.96,7.49
		c-1.68,0.62-2.79,1.85-3.99,3.03"/>
	<path class="st0" d="M159.5,139c-4.97-5.96-12.27-6.01-19-7.49c-0.48-0.1-1.19-0.23-1.47,0.02c-5.55,5.01-12.16,3.05-18.53,3
		c-14.33-0.11-28.67-0.11-43,0c-6.37,0.05-12.99,2.02-18.5-3.03c-5,1-10.13,1.61-14.94,3.19c-1.89,0.62-3.32,0.5-5.07,0.34
		c-7.18-0.66-14.42-1.55-21.47,0.54c-3.02,0.89-5.18-2.19-8.02-1.08"/>
	<path class="st0" d="M15.5,136.5c1.14,7.34,6.14,12.79,9.6,18.94c5.28,9.39,11.24,18.39,16.89,27.56c1.79,2.91,4.19,5.02,7.51,6"/>
	<path class="st0" d="M41.5,136.5c0.47,8.79,3.58,17.02,5.51,25.5c1.26,5.52,2.7,10.99,3.96,16.51c0.37,1.62,0.91,3.5,0.44,4.96
		c-3.21,9.99,3.33,17.14,7.19,24.98c1.69,3.45,6.68,3.3,8.9,6.55"/>
	<path class="st0" d="M120,218.5c-16.17,0-32.33,0-48.5,0"/>
	<path class="st0" d="M105,113c1.06-3.26,1.95-6.44,1.07-10.02c-1.02-4.15-3.74-6.98-7.57-6.98c-3.62,0-6.36,2.56-7.54,6.49
		c-1.12,3.72-0.17,7.09,1.04,10.51"/>
	<path class="st0" d="M58.5,131c2.28-3.53,5.59-5.53,9.48-7.06c7.92-3.12,15.9-6.06,23.61-9.77c4.55-2.19,10.42-2.15,14.81,0.05
		c7.68,3.84,15.74,6.55,23.64,9.71c3.87,1.55,7.19,3.53,9.47,7.07"/>
	<path class="st0" d="M126.5,218.5c-2,0-4,0-6,0"/>
</g>
</svg>
