<?xml version="1.0" encoding="utf-8"?>
<!-- Generator: Adobe Illustrator 24.1.0, SVG Export Plug-In . SVG Version: 6.00 Build 0)  -->
<svg version="1.1" id="Layer_1" xmlns="http://www.w3.org/2000/svg" xmlns:xlink="http://www.w3.org/1999/xlink" x="0px" y="0px"
	 viewBox="0 0 225.3 225.93" style="enable-background:new 0 0 225.3 225.93;" xml:space="preserve">
<style type="text/css">
	.st0{fill:#FEFEFE;}
	.st1{fill:#FDFDFD;}
	.st2{fill:#D7D7D7;}
	.st3{fill:#FBFBFB;}
	.st4{fill:#503B2C;}
	.st5{fill:#3D2B23;}
	.st6{fill:#4E3A2D;}
	.st7{fill:#4D3E33;}
	.st8{fill:#EAEAEA;}
	.st9{fill:#4E3A2A;}
	.st10{fill:#4C3A2D;}
	.st11{fill:#4A3B34;}
	.st12{fill:#49372E;}
	.st13{fill:#DEDEDE;}
	.st14{fill:#717171;}
	.st15{fill:#4C3F36;}
	.st16{fill:#DFDFDF;}
	.st17{fill:#E0E0E0;}
	.st18{fill:#523B29;}
	.st19{fill:#4F3F34;}
	.st20{fill:#4E392B;}
	.st21{fill:#503D2A;}
	.st22{fill:#503A28;}
	.st23{fill:#4D3C33;}
</style>
<g>
	<path d="M106.9,0.08c0.09,0.42,0.11,1.19,0.29,1.22c8.3,1.8,10.9,7.57,10.25,15.23c-0.31,3.73,1.3,5.3,4.52,6.51
		c13.08,4.93,26.11,9.98,39.09,15.17c3.41,1.36,6.83,1.17,10.31,1.26c6.98,0.18,14-0.58,20.95,0.45
		c12.37,1.83,20.65,11.28,20.43,23.72c-0.17,9.62,0.91,19.26-0.81,28.87c-3.49,19.52-19.78,35.28-43.46,36.26
		c-6.95,0.29-12.85-5.74-12.89-12.58c-0.03-6.11,5.22-10.97,12.2-11.28c14-0.63,21.94-8.94,21.99-23.02
		c0.02-4.83-0.05-9.66,0.01-14.49c0.05-3.78-1.63-5.42-5.47-5.3c-5.32,0.17-10.67,0.26-15.98-0.04c-3.19-0.18-4.27,1.06-4.94,3.96
		c-3.61,15.55-7.32,31.08-11.21,46.57c-0.98,3.9-1.5,7.92-5.11,11.02c-1.94,1.66-2.34,5.49,0.69,7.76c1.76,1.32,2.42,3.13,2.88,5.07
		c5.74,24.36,11.48,48.72,17.16,73.09c1.98,8.49-2.05,13.55-10.75,13.56c-33.97,0.02-67.93,0.02-101.9,0
		c-8.29-0.01-12.82-5.35-10.97-13.21c5.79-24.5,11.72-48.97,17.53-73.47c0.43-1.82,0.79-3.49,2.43-4.7c4.01-2.96,3.9-6.29-0.02-9.32
		c-1.14-0.88-2.03-2.18-2.79-3.43C46.91,95.25,32.47,71.54,18.05,47.82c-3.31-5.45-1.79-8.82,4.43-7.96
		c25.51,3.52,46.8-8.97,69.21-17.37c1.76-0.66,2.78-1.6,2.58-3.66c-0.8-8.16,1.23-14.8,9.79-17.87c0.05-0.02-0.1-0.57-0.15-0.88
		C104.91,0.08,105.9,0.08,106.9,0.08z"/>
	<path class="st0" d="M106.29,215.4c-8.82,0-17.64-0.09-26.45,0.05c-2.7,0.04-3.52-0.7-3.03-3.42c4.19-23.08,8.33-46.16,12.36-69.27
		c0.44-2.55,1.51-3.19,3.93-3.16c8.82,0.12,17.64,0.13,26.45,0c2.6-0.04,3.73,0.6,4.21,3.42c3.94,22.96,8.02,45.89,12.2,68.8
		c0.55,3.03-0.3,3.7-3.21,3.64C123.93,215.29,115.11,215.4,106.29,215.4z"/>
	<path class="st0" d="M106.42,48.14c7.48,0,14.97,0.09,22.45-0.05c2.68-0.05,3.87,0.36,3.39,3.52c-3.03,20.06-5.91,40.13-8.76,60.22
		c-0.33,2.35-1.43,2.96-3.63,2.93c-8.98-0.09-17.96-0.1-26.94,0c-2.25,0.02-3.17-0.65-3.51-3c-2.86-20.08-5.81-40.15-8.87-60.2
		c-0.48-3.14,0.75-3.53,3.41-3.48C91.45,48.23,98.94,48.14,106.42,48.14z"/>
	<path class="st1" d="M61.88,215.4c-10.26,0-10.28,0-8.23-8.72c4.99-21.21,9.99-42.42,15-63.63c0.33-1.4,0.25-3.35,2.28-3.33
		c3.11,0.03,6.34-0.8,9.31,0.54c0.9,0.41,0.28,1.83,0.11,2.77c-3.98,22.43-8.18,44.83-11.81,67.32
		C67.62,216.03,64.5,215.78,61.88,215.4z"/>
	<path class="st1" d="M62.55,48.14c9.01,0,8.87,0.02,10.14,9.06c2.46,17.43,5.14,34.83,7.58,52.27c0.24,1.72,2.22,4.38-1.31,5.24
		c-5.33,1.29-9.47-0.07-10.26-3.36c-4.68-19.37-9.22-38.78-14.07-58.11c-1.01-4.03-0.72-5.91,3.94-5.14
		C59.86,48.32,61.22,48.14,62.55,48.14z"/>
	<path class="st2" d="M150.99,215.4c-4.93,1.54-6.1-1.65-6.91-6.52c-3.57-21.48-7.55-42.9-11.23-64.36
		c-0.26-1.51-2.46-4.68,0.98-4.63c3.2,0.05,8.05-3.02,9.62,2.67c1.81,6.57,3.2,13.25,4.77,19.89c3.48,14.73,6.95,29.46,10.45,44.18
		C160.75,215.39,160.77,215.39,150.99,215.4z"/>
	<path class="st2" d="M158.72,48.13c-4.98,20.87-9.84,41.3-14.72,61.73c-0.99,4.17-7.48,6.88-11.11,4.72
		c-1.39-0.83-0.83-2.06-0.67-3.11c2.95-20.24,5.95-40.47,8.88-60.71c0.25-1.75,0.78-2.7,2.75-2.66
		C148.64,48.19,153.45,48.13,158.72,48.13z"/>
	<path class="st1" d="M74.5,38.3c8.93-3.49,17.87-6.95,26.79-10.48c3.26-1.29,6.43-1.31,9.7-0.04c9.09,3.54,18.2,7.02,27.24,11.11
		c-21.22,0-42.44,0-63.67,0C74.54,38.69,74.52,38.49,74.5,38.3z"/>
	<path class="st3" d="M51.92,87.04c-7.37-12.01-14.71-24.03-22.16-36c-1.6-2.58-0.71-2.86,1.81-2.96
		c12.6-0.54,12.65-0.61,15.61,11.64c2.02,8.36,3.9,16.76,5.85,25.14C53.45,85.99,53.9,87.14,51.92,87.04z"/>
	<path class="st4" d="M167.94,49.06c8.79-1.75,17.62-1.48,26.38-0.1c2.74,0.43,5.07,2.38,6.54,4.98c4.79,9.91,2.62,20.44,2.67,30.76
		c0.01,1.78-0.82,3.57,0.23,5.3c-0.51,3.95-1.45,7.75-3.83,11.05c-1.45,1.4-1.88,3.43-3.1,4.98l0,0c-1.92,0.15-2.95-1.45-4.4-2.24
		c-0.22-0.69-0.1-1.31,0.34-1.87c0.26-0.32,0.53-0.64,0.79-0.97c3.68-4.01,4.65-9.04,5.22-14.18c0.81-7.25,0.99-14.5-0.03-21.75
		c-1.38-5.65-4.59-9.75-10.1-11.9c-0.22-1.4-1.58-0.14-2.08-0.89c-0.79-0.48-1.47-1.13-2.31-1.54c-4.98-0.83-10.04,0.31-15.01-0.69
		C168.75,49.79,168.31,49.47,167.94,49.06z"/>
	<path class="st5" d="M126.93,123.95c2.75-0.24,5.49-0.56,8.25-0.71c1.9-0.1,2.64,1.16,2.65,2.88c0.01,1.78,0.45,3.85-1.9,4.6
		c-0.92,0.29-1.97,0.23-2.96,0.23c-17.79,0.03-35.58,0.04-53.37,0.04c-1.28,0-2.71,0.34-3.65-0.99c0.44-0.37,0.92-0.67,1.43-0.93
		c2.79-0.75,5.64-0.4,8.46-0.46c1.13-0.07,2.25-0.02,3.38-0.01c10.24-0.1,20.48-0.09,30.72-0.01c3.17,0.03,5.54-0.69,6.35-4.08
		C126.5,124.32,126.71,124.13,126.93,123.95z"/>
	<path class="st6" d="M186.81,114.95c-3.46,2.77-7.67,3.37-11.84,4.11c-3.08,0.68-6.17,0.67-9.25,0c-2.4-3.16-1.8-4.17,3.04-5.1
		c2.24-1.19,4.84,0.33,7.07-0.93c4.69-1.68,9.15-3.79,13.01-7.02c0.58-0.53,1.23-0.63,1.94-0.31c1.46,2.14-0.25,3.35-1.55,4.34
		C187.51,111.34,186.88,112.95,186.81,114.95z"/>
	<path class="st7" d="M203.76,90c-0.95-0.49-1.37-1.11-1.34-2.32c0.2-7.9,0.1-15.82,0.47-23.71c0.17-3.62-2.83-6.41-2.04-10.03
		c3.87,3.1,3.61,7.67,3.76,11.82C204.93,73.84,205.09,81.96,203.76,90z"/>
	<path class="st8" d="M105.79,18.29c-2.94,0.65-3.86-0.59-3.76-3.44c0.1-2.79,0.78-5.34,3.77-5.43c3.01-0.1,3.83,2.35,4.02,5.18
		C110.04,17.82,108.66,18.78,105.79,18.29z"/>
	<path class="st9" d="M186.81,114.95c-2.14-1.75-2.16-3.43,0.29-4.83c1.71-0.98,3.27-2.02,3.73-4.1c0.23-1.1,0.17-2.49,2-2
		c2.47-1.59,2.7,1.3,4.01,2.01C194.05,109.63,191.11,113.05,186.81,114.95z"/>
	<path class="st5" d="M76.04,124.04c0.78-1.16,2-0.98,3.13-0.98c14.85-0.01,29.69,0,44.54,0c1.15,0,2.33-0.07,3.22,0.88
		c0,0-0.12,0.14-0.12,0.14c-0.45,0.38-0.96,0.68-1.51,0.9c-1.75,0.48-3.55,0.32-5.33,0.43c-11.45,0.1-22.9,0.13-34.34,0.02
		c-2.7-0.02-5.42,0.25-8.08-0.43C76.99,124.78,76.48,124.45,76.04,124.04z"/>
	<path class="st10" d="M198.76,65.01c2.15,11.17,1.74,22.2-2.08,32.96c-0.4,1.14-1.35,2.74-3.11,2.97
		C200.2,89.68,198.42,77.19,198.76,65.01z"/>
	<path class="st11" d="M167.94,49.06c0.31,0,0.61,0,0.92,0.01c0.37,0.39,0.77,0.74,1.21,1.05c3.52,1.09,7.14,0.38,10.71,0.57
		c2.1,0.11,4.29-0.22,6.05,1.37c1,0.25,2.17-0.57,3.03,0.49c-0.4,0.19-0.79,0.38-1.19,0.57c-6.1,0-12.19-0.09-18.29,0.03
		C166.89,53.22,166.21,51.94,167.94,49.06z"/>
	<path class="st12" d="M165.71,119.07c3.08,0,6.17,0,9.25,0C171.88,120.46,168.8,120.58,165.71,119.07z"/>
	<path class="st10" d="M192.83,104.02c-0.67,0.67-1.33,1.33-2,2c-0.67,0-1.33,0-2,0c1.32-1.37,2.63-2.73,3.95-4.1
		C192.8,102.61,192.81,103.31,192.83,104.02z"/>
	<path class="st12" d="M175.83,113.04c-2.15,1.87-4.71,0.63-7.07,0.93C170.95,112.41,173.47,113.31,175.83,113.04z"/>
	<path class="st10" d="M196.83,106.03c0.36-2.08,0.92-4.03,3.09-4.98C199.44,103.05,198.7,104.89,196.83,106.03z"/>
	<path class="st13" d="M51.92,87.04c0.37-0.73,0.74-1.45,1.11-2.18c1.03,0.81,0.66,2.07,1.01,3.1c0.27,1.06-0.21,1.36-1.18,1.16
		C52.55,88.43,52.23,87.74,51.92,87.04z"/>
	<path class="st14" d="M52.86,89.13c0.39-0.39,0.79-0.78,1.18-1.16c1.12,0.93,1.6,2.52,0.51,3.15
		C53.42,91.77,52.92,90.28,52.86,89.13z"/>
	<path class="st15" d="M76.04,124.04c0.29,0.01,0.59,0.02,0.88,0.04c1.59,1.96,1.54,3.92,0.02,5.89c-0.33,0.01-0.66,0.02-0.99,0.02
		C75.97,128.01,76,126.03,76.04,124.04z"/>
	<path class="st16" d="M135.3,148.85c0.87,1.09,0.72,2.12,0.17,3.28C134.65,151.04,134.75,150.01,135.3,148.85z"/>
	<path class="st16" d="M144.29,199.82c0.86,1.09,0.72,2.12,0.17,3.28C143.64,202.01,143.74,200.98,144.29,199.82z"/>
	<path class="st13" d="M134.88,104.02c0-1.93,0-3.86,0-5.79C135.67,100.19,136.64,102.17,134.88,104.02L134.88,104.02z"/>
	<path class="st13" d="M134.88,104.01c0,1.61,0,3.21,0,4.82C133.84,107.17,133.43,105.54,134.88,104.01
		C134.88,104.02,134.88,104.01,134.88,104.01z"/>
	<path class="st16" d="M140.35,68.8c-0.53-2.25-0.66-3.5-0.04-4.89C141.21,65.34,140.96,66.66,140.35,68.8z"/>
	<path class="st13" d="M138.38,77.81c0.74,1.09,0.72,2.75,0.24,2.88c-1.31,0.36-0.51-0.96-0.65-1.53
		C137.87,78.81,138.19,78.36,138.38,77.81z"/>
	<path class="st17" d="M139.55,73.93c-0.8-0.92-0.77-1.86-0.3-2.91C140.46,71.94,139.48,73.01,139.55,73.93z"/>
	<path class="st18" d="M186.83,52.05c-4.74,0-9.47,0.02-14.21-0.01c-1.57-0.01-3.44,0.44-3.77-1.98c5.66-0.8,11.32-0.8,16.98-0.01
		C186.63,50.48,186.81,51.22,186.83,52.05z"/>
	<path class="st19" d="M185.83,50.05c-5.66,0-11.32,0-16.98,0.01c0-0.33,0-0.66,0.01-0.99C174.5,49.59,180.28,47.88,185.83,50.05z"
		/>
	<path class="st20" d="M125.87,124.1c0.31-0.03,0.63-0.03,0.94-0.02c0.55,4.55-1.1,6.23-5.99,6.04c-10.62-0.42-21.26-0.14-31.9-0.15
		c-1.67-4.49,1.87-4.25,4.31-4.35c6.62-0.27,13.25-0.06,19.87-0.11c2.15-0.02,4.31,0.18,6.44-0.23
		C121.59,124.63,123.97,125.65,125.87,124.1z"/>
	<path class="st21" d="M120.89,126c-4.11,1.95-8.48,0.79-12.72,0.95c-5.29,0.2-10.58,0.11-15.88,0.02c-2.17-0.03-3.58,0.5-3.38,3
		c-1,0-1.99,0-2.99,0c-1.34-1.8-2.37-3.65-0.99-5.9c11.99,0,23.97,0.01,35.96,0.01C121.48,124.72,121.48,125.36,120.89,126z"/>
	<path class="st20" d="M84.93,124.07c0.34,1.97,1.33,3.82,0.99,5.9c-3,0-5.99,0-8.99,0c-0.01-1.96-0.01-3.93-0.02-5.89
		C79.59,124.08,82.26,124.08,84.93,124.07z"/>
	<path class="st22" d="M169.46,117.27c1.5-1.61,3.1-1.41,5.09-0.6C172.89,118.81,171.1,117.68,169.46,117.27z"/>
	<path class="st23" d="M120.89,126c0-0.64,0-1.28,0-1.92c1.66,0.01,3.32,0.01,4.97,0.02C125.15,127.21,122.62,125.56,120.89,126z"/>
</g>
</svg>
