<?xml version="1.0" encoding="utf-8"?>
<!-- Generator: Adobe Illustrator 24.1.0, SVG Export Plug-In . SVG Version: 6.00 Build 0)  -->
<svg version="1.1" id="Layer_1" xmlns="http://www.w3.org/2000/svg" xmlns:xlink="http://www.w3.org/1999/xlink" x="0px" y="0px"
	 viewBox="0 0 383 905" style="enable-background:new 0 0 383 905;" xml:space="preserve">
<style type="text/css">
	.st0{fill:none;stroke:#000000;stroke-width:3;stroke-linecap:round;stroke-linejoin:round;stroke-miterlimit:10;}
</style>
<g>
	<path class="st0" d="M-112.25,902.25"/>
	<path class="st0" d="M571.25,902.25"/>
	<path class="st0" d="M228,441.75c1.5,1.58,3.35,2.03,5.5,2.03c16.08-0.05,32.17-0.04,48.25-0.01c1.32,0,2.8,0.07,3.7-0.82
		c1.38-1.38,2.94-1.16,4.55-1.2c4.05-0.11,7.92,0.84,11.76,1.97c0.41,0.12,0.76,0.2,0.98,0.54c3.84,5.77,9.62,9.55,14.53,14.22
		c14.45,13.77,28.95,27.51,40.9,43.58c6.76,9.09,11.16,19.48,14.06,30.45c1.73,6.56,2.81,13.23,3.58,19.99
		c1.74,15.26-0.96,29.9-6.43,43.96c-5.54,14.25-14.65,26.22-26.41,36.02c-14.83,12.35-31.67,20.75-50.47,25.32
		c-9.31,2.26-18.66,3.84-28.26,4c-2.58,0.04-5.15,0.64-7.75,0.45c-8.02-0.6-16.04-0.93-24.02-2.39
		c-12.92-2.36-25.28-6.19-36.97-12.12c-15.86-8.04-29.36-18.94-39.75-33.48c-7.75-10.85-12.39-22.97-15.05-35.99
		c-1.63-7.97-1.82-16-1.35-24c0.62-10.65,3.27-20.92,6.81-31.04c4.8-13.73,13.35-24.84,22.83-35.48
		c9.82-11.02,20.58-21.09,31.28-31.22c3.34-3.17,6.82-6.18,10.24-9.26c1.41-1.27,2.19-2.6,1.04-4.53c-0.35-0.59-0.28-1.47-0.28-2.22
		c-0.02-10.83,0-21.67-0.02-32.5c-0.01-3.54,0.78-3.52,3.51-3.52c28.5,0.03,57,0.02,85.5,0.02c0.96,0,1.92,0.09,2.81,0.13
		c0.7,1.3,0.7,2.57,0.7,3.87c-0.02,10.25-0.04,20.5,0.02,30.75c0.01,1.69-0.2,3.27-1.03,4.75"/>
	<path class="st0" d="M5.75,859.12c0.82-0.27,1.49-0.05,2.26,0.35c7.66,3.97,15.87,6.37,24.24,8.26c2.22,0.5,4.41,1.13,6.75,1.09
		c0.92-0.02,1.88,0.55,2.77,1.15c10.2,6.91,21.73,10.63,33.48,13.77c9.05,2.42,18.26,4.09,27.51,5.43c4.88,0.7,9.8,1.27,14.73,1.65
		c7,0.55,13.98,1.22,21,1.51c6.17,0.25,12.33,0.69,18.5,0.98c6.83,0.33,13.67,0.68,20.5,1.01c7.08,0.34,14.17,0.64,21.25,0.99
		c12.91,0.63,25.83,1.02,38.75,1.54c4.92,0.2,9.84,0.15,14.75,0.42c14.49,0.78,29.01,0.58,43.5,1.11
		c14.51,0.53,29.01,0.1,43.51,0.33c2.66,0.04,5.31-0.53,8-0.51c1.83,0.01,2.56-0.95,2.05-2.97c-0.78-3.08-1.98-5.92-3.82-8.47
		c-1.48-2.05-2.22-4.25-1.98-6.77"/>
	<path class="st0" d="M82.75,830.25c-3.04-2.64-5.32-5.76-6.26-9.75c-0.06-0.25,0.2-0.47-0.21-0.79c-2.2-1.68-2.64-4.41-3.75-6.73
		c-0.92-1.92-1.51-3.96-2.73-5.77c-0.83-1.22-0.59-2.73-0.33-4.23c1.25-7.24,2.37-14.49,3.54-21.74
		c1.92-11.94,3.11-23.97,4.17-36.01c0.47-5.31,0.86-10.65,1.18-15.99c0.62-10.5,1.1-20.99,1.51-31.5
		c0.79-20.59,0.34-41.17,0.26-61.75c-0.03-7.9-0.13-15.86-0.92-23.75c-0.79-7.91-1.01-15.85-1.83-23.77
		c-0.64-6.14-1.01-12.34-1.68-18.48c-0.99-9.03-2.19-18.04-3.62-27.02c-0.93-5.83-2.26-11.59-2.84-17.49
		c-0.29-2.93-4.05-4.38-6.19-2.48c-1.26,1.12-2.73,1.53-4.27,1.7c-2.65,0.29-5.34,0.52-7.98,0.75c-4.01,0.35-8.19,0.69-11.99,0.24
		c-4.26-0.51-9.37,0.28-12.75-3.72c-4.98,0.98-4.25,0.84-4.96,5.02c-1.56,9.14-3.26,18.26-4.4,27.48
		c-1.32,10.66-2.63,21.3-3.47,32.01c-0.55,7-1.12,13.99-1.54,21c-0.42,6.92-0.67,13.83-0.97,20.75c-0.98,22.67-0.24,45.34-0.38,68
		c-0.05,8.08,0.45,16.18,1,24.25c0.33,4.92,0.47,9.86,1.01,14.75c1.05,9.5,1.67,19.03,2.82,28.52c1.08,8.93,2.26,17.84,3.63,26.73
		c0.71,4.6,1.62,9.17,2.49,13.75c0.41,2.19,3.5,4.6,5.73,4.2c2.16-0.39,4.2,0.04,6.26,0.33c10.17,1.46,20.33,1.46,30.51,0
		c1.96-0.28,3.78-0.81,5.5-1.77"/>
	<path class="st0" d="M362.75,83.75c3.95-0.12,8.24-3.25,6.47-9.74c-0.39-1.42-0.89-2.66,0.22-4.05c0.44-0.55,0.29-1.62,0.3-2.45
		c0.02-4.67,0.33-9.36-0.07-13.99c-0.53-6.27,0.11-12.51-0.16-18.76c-0.2-4.68-2.43-8.22-6.02-10.99
		c-7.84-6.07-17.11-8.81-26.49-11.26c-9.69-2.53-19.6-3.98-29.51-5.17c-8.2-0.98-16.47-1.44-24.74-1.86
		c-11.83-0.6-23.67-0.59-35.5-0.41c-9.76,0.15-19.52,0.74-29.26,1.63c-9.48,0.86-18.9,2.07-28.24,3.86c-9.91,1.89-19.7,4.33-28.74,9
		c-4.78,2.47-9.38,5.24-11.59,10.68c-0.78,1.91-1.16,3.78-1.18,5.78c-0.03,3,0.18,6.02-0.07,8.99c-0.21,2.44,0.72,4.75,0.17,7.28
		c-0.52,2.39-0.11,4.98-0.11,7.48c0,2.42,0.06,4.84-0.02,7.25c-0.06,1.74,0.24,3.33,1.27,4.75"/>
	<path class="st0" d="M154,83.25c0.68,0.8,1.33,1.62,1.24,2.75c-0.35,4.44,0.47,8.83,0.53,13.25c0.12,8.76,0.81,17.49,1.07,26.25
		c0.21,6.91,0.68,13.83,0.98,20.75c0.31,7.42,0.69,14.83,1.01,22.25c0.3,6.92,0.69,13.83,0.99,20.75c0.32,7.5,0.69,15,1.01,22.5
		c0.3,7,0.7,14,0.99,21c0.31,7.42,0.69,14.83,1.01,22.25c0.29,6.92,0.65,13.83,1,20.75c0.39,7.57,0.08,15.31,3.19,22.5
		c2.76,6.38,6.43,11.98,12.12,16.4c3.38,2.63,7.04,3.99,10.86,5.36c3.72,1.34,7.54,2.06,11.5,2.27c19.49,1.05,39,0.28,58.5,0.45
		c15.83,0.14,31.67,0.12,47.5-0.01c6.75-0.06,13.53-0.42,20-2.72c12.4-4.4,19.81-13.4,23.48-25.75c1.42-4.79,1.64-9.79,1.74-14.74
		c0.19-9.17,0.88-18.32,1.12-27.5c0.19-7,0.69-14,0.98-21c0.31-7.5,0.7-15,1.01-22.5c0.29-7,0.67-14,0.99-21c0.49-11,1-22,1.51-33
		c0.49-10.5,1.02-21,1.45-31.5c0.49-11.92,0.94-23.85,1.83-35.74c0.36-4.76-0.08-9.53,0.65-14.26c0.1-0.66,0.06-1.37,0.27-1.99
		c0.87-2.53-0.01-4.31-2.52-5.01c-2.54-0.7-4.78-2.11-7.23-3.05c-9.38-3.62-19.13-5.62-29.01-7.24c-9.87-1.62-19.82-2.45-29.76-3.41
		c-4.39-0.42-8.83-0.34-13.25-0.55c-9.66-0.46-19.33-0.72-29-0.46c-12.35,0.33-24.69,0.7-37.01,1.91
		c-10.24,1.01-20.42,2.22-30.5,4.3c-9.1,1.88-17.97,4.39-26.28,8.69c-1.95,1.01-4.05,1.63-4.42,4.07c-0.18,1.2-1.2,0.91-1.55,0.91
		c-2.66,0-3.11,1.9-3.49,3.83c-0.93,4.66,0.94,7.47,5.24,8"/>
	<path class="st0" d="M361.5,66.25c0.12-0.25,0.25-0.5,0.38-0.75c1.47-2.89,1.37-3.06-1.37-5.01c-3.98-2.83-8.42-4.86-12.79-6.93
		c-17.82-8.43-36.47-14.18-55.96-17.38c-14.53-2.39-29.13-2.8-43.76-2.32c-7.44,0.24-14.87,1.37-22.26,2.61
		c-15.37,2.58-30.26,6.9-44.72,12.61c-8.39,3.31-16.53,7.24-24.54,11.41c-2.18,1.14-3.14,2.13-1.49,6.52"/>
	<path class="st0" d="M328,783.38c2.17-9.04,4.34-18.08,6.5-27.13c4.5-18.83,9.06-37.65,13.42-56.52c0.51-2.21,0.39-4.46,1.74-6.54
		c0.66-1.02-0.14-2.33-1.38-3.23c-3.17-2.32-6.84-3.29-10.53-4.2c-10.19-2.53-20.57-3.83-31-4.72c-6.24-0.53-12.47-1.21-18.75-1.33
		c-11-0.21-22-0.89-33-0.89c-10.67,0-21.35,0.31-32,1c-13.99,0.9-27.97,2.2-41.74,4.99c-4.3,0.87-8.63,1.88-12.53,4.16
		c-3.42,2-3.75,2.78-1.99,6.28c0.23,0.47,0.57,1.05,0.47,1.49c-1.14,5.18,0.86,10.05,1.62,14.99c2,13.04,4.43,26.01,6.66,39.01
		c1.77,10.33,3.5,20.67,5.26,31c0.24,1.41,0.94,2.23,2.47,2.82c12.79,4.94,26.02,8.05,39.52,10.21c13.76,2.19,27.62,3.06,41.5,2.38
		c14.98-0.73,29.77-3.14,44.25-7.17c6.1-1.69,12.12-3.64,18.02-5.96c0.59-0.23,1.09-0.72,2.01-0.33c4.42,1.91,9.31,2.37,13.73,4.3
		c2.96,1.3,6.07,2.41,7.74,5.5c0.28,0.52,0.53,1.17,0.49,1.74c-0.66,8.91-0.07,17.84-0.2,26.75c-0.12,8.83-0.03,17.67-0.03,26.5
		c0,8.92,0,17.83,0,26.75c0,1.46,0,3.19-1.53,3.67c-1.88,0.59-3.99,1.65-5.96,0.32c-8.02-5.42-17.06-7.45-26.5-8.54
		c-8.66-1-17.34-1.58-26.01-2.39c-5.48-0.51-11-0.53-16.5-0.8c-8.33-0.4-16.67-0.85-25-1.24c-2.33-0.11-4.64,0.27-7.01,0.05
		c-5.57-0.52-11.17-0.58-16.74-1.1c-6.25-0.58-12.5-0.99-18.75-1.52c-7.25-0.62-14.49-1.39-21.75-1.97
		c-6.26-0.5-12.52-1.15-18.75-2.01c-7.57-1.05-15.2-1.55-22.76-2.7c-7.58-1.16-15.21-2.03-22.75-3.51
		c-6.65-1.3-13.35-2.42-19.75-4.75c-1.59-0.58-3.19-1.04-4.52-2.23c-2.62-2.35-3.11-6.53-0.98-9.28c2.84-3.68,6.84-5.63,11.01-7.22
		c12.39-4.73,25.41-6.56,38.49-8.01c9.89-1.09,19.82-1.69,29.74-2.35c5.51-0.37,11.01-0.37,16.51-0.66"/>
	<path class="st0" d="M349.5,798c-0.83,0.17-1.8,0.12-2.48,0.53c-6.09,3.72-12.94,5.01-19.76,6.5c-6.04,1.32-12.16,2.14-18.27,2.85
		c-6.38,0.74-12.8,1.26-19.23,1.7c-11.58,0.79-23.17,1.15-34.76,1.09c-11.67-0.06-23.35-0.47-34.99-1.27
		c-8.28-0.57-16.54-1.55-24.77-2.84c-8.59-1.35-17.1-2.91-25.24-6.05c-2.02-0.78-3.59-2.66-6-2.51"/>
	<path class="st0" d="M347.5,696.75c-2.68-0.5-4.85,1.15-7.23,1.82c-8.62,2.4-17.43,3.61-26.27,4.65
		c-7.15,0.84-14.32,1.49-21.5,1.99c-3.9,0.27-7.84,0.41-11.75,0.45c-8.26,0.08-16.51,0.85-24.75,0.52
		c-12.08-0.49-24.18-0.4-36.26-1.33c-9.02-0.7-18.04-1.38-26.98-2.68c-7.35-1.06-14.75-2.2-21.76-4.93
		c-1.15-0.45-2.27-0.79-3.51-0.73"/>
	<path class="st0" d="M143.5,414.5c-23.42,0-46.83,0-70.25,0c-4.78,0-9.58,0.35-13.98,2.29c-12.98,5.71-20.85,15.46-22.76,29.71
		c-0.19,1.4-0.25,2.83-0.25,4.25c-0.02,11-0.01,22,0,33c0,0.92-0.18,1.86,0.24,2.75"/>
	<path class="st0" d="M368.75,50.25c-2.49,0.34-4.58-1.04-6.72-1.83c-8.49-3.11-16.86-6.53-25.52-9.2
		c-2.33-0.72-4.06-2.56-6.01-3.97c-11.93-8.59-24.81-15.38-38.77-19.94c-8.74-2.85-17.72-4.52-26.97-5.15
		c-17.07-1.17-33.15,2.56-48.73,8.91c-11.41,4.65-21.95,10.99-31.73,18.5c-1.59,1.23-3.34,1.54-5.05,2.18
		c-8.99,3.36-17.99,6.69-27,9.99c-0.94,0.34-1.93,0.72-2.99,0.52"/>
	<path class="st0" d="M301.5,356.5c2.8,6.37,0.45,12.58-0.85,18.73c-0.71,3.37-3.46,5.3-6.9,6.03c-1.1,0.23-2.18,0.52-3.5,0.84
		c0,3.65,0.01,7.28,0,10.9c-0.01,3.35-0.4,3.75-3.75,3.75c-19.33,0-38.67,0-58,0c-3.07,0-3.24-0.18-3.25-3.25
		c-0.01-2.92-0.11-5.84,0.04-8.75c0.1-1.97-0.67-2.92-2.53-3.27c-1.19-0.23-2.45-0.44-3.48-1.02c-3.1-1.72-4.75-4.48-5.28-7.96
		c-0.29-1.92-0.66-3.83-0.99-5.75c-0.49-2.77-0.89-5.46,0.19-8.27c0.87-2.29,1.45-2.98,3.81-2.73c7.73,0.84,15.37,2.23,23.01,3.68
		c4.44,0.85,8.97,1.33,13.48,1.91c6.92,0.88,13.58-0.64,20.24-1.69c8.01-1.27,15.94-3.33,24.03-3.71c3.57-0.17,6.99-0.9,10.48-1.28
		c3.53-0.38,7.03-1.27,10.52-2.1c9.13-2.17,15.4-10.71,16.8-18.3c1.05-5.7,0.98-11.16-1.32-16.51"/>
	<path class="st0" d="M143.5,431.25c-23.08,0-46.17-0.06-69.25,0.03c-10.39,0.04-17.88,6.41-20.45,16.49
		c-0.46,1.82-0.29,3.82-0.29,5.74c-0.02,10,0,20-0.02,30c0,1.08-0.16,2.17-0.24,3.25"/>
	<path class="st0" d="M170.25,809.25c-4.58-0.17-9.18-0.62-13.75-0.44c-8.75,0.35-17.51,0.16-26.26,0.87
		c-2.66,0.21-5.33,0.36-7.99,0.59c-4.92,0.43-9.87,0.78-14.74,1.53c-6.72,1.03-13.43,2.22-19.99,4c-3.68,1-7.46,1.87-10.76,3.95"/>
	<path class="st0" d="M181.25,317.25c-4.27,10.56-2.73,20.25,4.52,28.99c3.42,4.13,8.22,5.88,13.24,6.98
		c3.8,0.83,7.65,1.46,11.5,1.98c1.2,0.16,2.12,0.59,2.99,1.3"/>
	<path class="st0" d="M198.25,448.25c0.58-1.17,1.2-2.32,1.74-3.5c0.67-1.47,0.12-3.9-1.26-4.17c-3.56-0.72-6.53-2.97-10.22-3.42
		c-2.47-0.3-4.82-0.16-7.27,0.02c-7.08,0.53-14.16-0.44-21.24-0.42c-0.8,0-1.13-0.37-1.52-1c-1.19-1.93-1.4-4.54-3.94-5.6
		c-0.34-0.14-0.26-1.42-0.27-2.17c-0.04-1.75,0-3.5-0.01-5.25c-0.03-2.56,0.79-5.23-1.2-7.54c-0.41-0.47-0.28-1.46-0.29-2.21
		c-0.02-5.25,0-10.5-0.02-15.75c-0.01-2.72-0.28-3-3-2.99c-6.67,0.02-5.99-0.7-6,5.99c-0.01,3.5-0.01,7,0,10.5
		c0.01,1.84-0.46,3.82,1.25,5.24c0.55,0.46,0.22,1.02,0.23,1.51c0.04,3.42,0.02,6.83,0.02,10.25c0,1.12,0.24,2.3-1,3
		c-0.74,0.42-0.49,1.13-0.49,1.75c-0.01,5.33,0.04,10.67-0.03,16c-0.03,2.03,0.75,2.81,2.78,2.77c6.95-0.12,6.23,0.74,6.25-6.02
		c0.01-3.25,0.06-6.5-0.02-9.75c-0.05-1.87,0.3-3.55,1.52-5"/>
	<path class="st0" d="M26.5,809c-0.22,8.13-4.81,14.4-9.67,20.1c-3.36,3.94-5.29,8.04-6.36,12.89c-1.12,5.11-2.49,10.17-3.69,15.26
		c-0.1,0.44-0.3,1.07,0.22,1.49"/>
	<path class="st0" d="M163.25,820.75c0,11.67,0,23.33-0.01,35c0,0.92,0.18,1.86-0.24,2.75"/>
	<path class="st0" d="M31,490.75c1.49,1.34,3.19,2.17,5.25,2c3.19-0.27,6.3,0.64,9.5,0.56c3.18-0.08,6.3-0.89,9.5-0.58
		c1.08,0.11,1.88-0.73,2.74-1.24c2.55-1.5,5.33-0.95,5.28,3.26c-0.1,8-0.02,16-0.03,24c0,1.11-0.03,2.22,0.5,3.25"/>
	<path class="st0" d="M59,490.75c-1.65-2.54-3.83-3.66-7-3.58c-4.99,0.13-10,0.35-15-0.16c-2.2-0.22-3.64,1.36-5.24,2.49
		c-0.58,0.41-0.85,1.12-1.75,1.28c-2.86,0.53-3.25,1.06-3.25,3.96c-0.01,8-0.01,16,0,24c0,1.11,0.03,2.22-0.5,3.25"/>
	<path class="st0" d="M199.88,404.25c0.12,0.25,0.38,0.52,0.36,0.75c-0.65,5.42,0.28,10.83,0.07,16.25
		c-0.21,5.41-0.07,10.83-0.03,16.25c0.01,1.22-0.37,2.26-1.02,3.25"/>
	<path class="st0" d="M185,412.5c-0.18-1.45-1.28-1.25-2.25-1.25c-7.17-0.01-14.33,0.02-21.5-0.02c-2.01-0.01-3.09,1.18-3.71,2.78
		c-0.6,1.54-1.3,2.9-2.79,3.73"/>
	<path class="st0" d="M287.25,441.5c-1.21-1.53-2.78-2.32-4.75-2.52c-7.09-0.7-14.17-1.43-21.25-2.25
		c-6.84-0.79-13.49,1.03-20.25,1.29c-2.42,0.09-4.83,0.49-7.25,0.72c-2.07,0.2-4.04,0.56-5.51,2.24c-0.31,0.36-0.5,0.84-1.24,0.79
		c-5.02-0.35-9.81,0.82-14.5,2.47"/>
	<path class="st0" d="M181.25,784c-1.32,1.97-3.62,1.83-5.52,2.45c-3.4,1.11-6.76,2.24-9.74,4.29c-2.33,1.6-3.59,3.66-2.46,6.49
		c0.46,1.16-0.35,1.98-0.33,3.02c0.09,5.92,0.03,11.83,0.05,17.75c0,0.75,0.16,1.5,0.24,2.25"/>
	<path class="st0" d="M38.5,526.25c-0.7,1.87,0.26,3.37,0.97,5.01c2.04,4.74,5.11,8.7,8.81,12.21c1.06,1.01,2.35,1.86,3.98,1.77"/>
	<path class="st0" d="M53.75,526.25c-0.53,4.83-0.12,9.67-0.25,14.5c-0.02,0.67,0.25,1.48-0.04,1.97c-1.67,2.77-0.14,4.87,1.29,7.03
		"/>
	<path class="st0" d="M199.25,408c-1.15-0.05-2.25,0.2-3.25,0.76c-3.42,1.91-7.24,2.34-11,2.99"/>
	<path class="st0" d="M153.5,71.25c1.99,3.84,1.61,7.78,0.5,11.75"/>
	<path class="st0" d="M66.25,489.75c-1.18,0.16-2.3,0.48-3.25,1.25"/>
	<path class="st0" d="M336.5,39.5c-0.51,0.88-0.13,1.84-0.25,2.75"/>
</g>
</svg>
